<?xml version="1.0" encoding="utf-8"?>
<!-- Generator: Adobe Illustrator 16.0.3, SVG Export Plug-In . SVG Version: 6.00 Build 0)  -->
<!DOCTYPE svg PUBLIC "-//W3C//DTD SVG 1.1//EN" "http://www.w3.org/Graphics/SVG/1.1/DTD/svg11.dtd">
 
<svg version="1.1" id="Capa_1" xmlns="http://www.w3.org/2000/svg" xmlns:xlink="http://www.w3.org/1999/xlink" x="0px" y="0px"
	 width="2636px" height="369px" viewBox="0 0 2636 369" enable-background="new 0 0 2636 369" xml:space="preserve">
<g>
	<path fill="#8ACEB9" d="M292.788,230.748c0,5.432-0.957,11.292-2.867,17.577c-1.912,6.288-5.005,12.122-9.279,17.502
		c-4.277,5.383-9.859,9.883-16.748,13.504c-6.891,3.621-15.265,5.432-25.121,5.432h-70.762c-5.432,0-11.292-0.955-17.578-2.866
		c-6.287-1.91-12.122-5.003-17.502-9.279c-5.382-4.274-9.882-9.856-13.503-16.748c-3.621-6.889-5.432-15.262-5.432-25.121
		c0-5.432,0.955-11.316,2.867-17.652c1.91-6.338,5.002-12.195,9.279-17.578c4.274-5.379,9.856-9.883,16.747-13.503
		c6.889-3.621,15.263-5.432,25.122-5.432h70.762V214h-70.762c-5.333,0-9.456,1.637-12.372,4.904
		c-2.918,3.27-4.375,7.317-4.375,12.146c0,5.13,1.683,9.128,5.055,11.995c3.369,2.866,7.367,4.3,11.995,4.3h70.46
		c5.33,0,9.454-1.607,12.372-4.828c2.916-3.218,4.375-7.242,4.375-12.07v-54.769c0-5.13-1.584-9.204-4.752-12.221
		c-3.169-3.018-7.167-4.526-11.995-4.526h-86.152v-37.267h86.152c5.432,0,11.29,0.957,17.577,2.867
		c6.285,1.912,12.12,5.005,17.502,9.279c5.38,4.276,9.883,9.859,13.504,16.747c3.621,6.891,5.432,15.265,5.432,25.122V230.748z"/>
	<path fill="#8ACEB9" d="M471.881,284.763h-39.229v-108.18c0-5.13-1.358-9.027-4.074-11.693c-2.716-2.664-6.74-3.999-12.07-3.999
		h-50.997v123.872h-39.229V141.126c0-2.716,0.502-5.255,1.509-7.619c1.004-2.362,2.414-4.425,4.225-6.187
		c1.811-1.758,3.923-3.142,6.337-4.149c2.414-1.004,4.979-1.509,7.695-1.509h70.762c5.432,0,11.264,0.957,17.502,2.867
		c6.235,1.912,12.169,4.979,17.804,9.204v-12.07h53.109c3.72,0,7.643,0.429,11.769,1.283c4.123,0.855,8.223,2.188,12.297,3.998
		c4.073,1.811,7.97,4.149,11.693,7.016c3.72,2.867,6.99,6.337,9.807,10.411c2.815,4.073,5.078,8.777,6.79,14.107
		c1.709,5.333,2.565,11.368,2.565,18.105v108.18h-39.229v-108.18c0-5.13-1.282-9.027-3.848-11.693
		c-2.564-2.664-6.514-3.999-11.844-3.999H469.92c1.306,4.828,1.961,10.06,1.961,15.691V284.763z"/>
	<path fill="#8ACEB9" d="M764.586,230.748c0,5.432-0.957,11.292-2.867,17.577c-1.912,6.288-5.005,12.122-9.279,17.502
		c-4.276,5.383-9.859,9.883-16.747,13.504c-6.891,3.621-15.265,5.432-25.122,5.432H639.81c-5.432,0-11.292-0.955-17.577-2.866
		c-6.288-1.91-12.123-5.003-17.502-9.279c-5.382-4.274-9.883-9.856-13.504-16.748c-3.621-6.889-5.432-15.262-5.432-25.121
		c0-5.432,0.955-11.316,2.867-17.652c1.91-6.338,5.002-12.195,9.279-17.578c4.274-5.379,9.857-9.883,16.748-13.503
		c6.888-3.621,15.262-5.432,25.121-5.432h70.762V214H639.81c-5.333,0-9.456,1.637-12.372,4.904
		c-2.918,3.27-4.375,7.317-4.375,12.146c0,5.13,1.683,9.128,5.054,11.995c3.369,2.866,7.367,4.3,11.995,4.3h70.46
		c5.33,0,9.454-1.607,12.372-4.828c2.916-3.218,4.375-7.242,4.375-12.07v-54.769c0-5.13-1.584-9.204-4.753-12.221
		c-3.168-3.018-7.167-4.526-11.995-4.526H624.42v-37.267h86.152c5.432,0,11.29,0.957,17.578,2.867
		c6.285,1.912,12.12,5.005,17.502,9.279c5.379,4.276,9.882,9.859,13.503,16.747c3.621,6.891,5.432,15.265,5.432,25.122V230.748z"/>
	<path fill="#8ACEB9" d="M952.582,133.733c1.608,3.723,2.037,7.495,1.283,11.316c-0.755,3.824-2.49,7.143-5.206,9.958
		l-90.678,90.527h94.299v39.229H810.755c-4.024,0-7.671-1.132-10.939-3.395c-3.27-2.264-5.709-5.153-7.317-8.676
		c-1.509-3.72-1.886-7.518-1.132-11.392c0.755-3.871,2.589-7.266,5.507-10.184l90.226-90.226h-94.299v-39.229h141.826
		c3.923,0,7.518,1.056,10.788,3.168C948.682,126.943,951.073,129.912,952.582,133.733z"/>
	<path fill="#8ACEB9" d="M1375.344,284.763h-39.229v-90.527c0-5.13-0.881-9.731-2.64-13.806c-1.761-4.073-4.149-7.567-7.167-10.486
		c-3.018-2.916-6.563-5.153-10.637-6.714c-4.074-1.558-8.476-2.338-13.202-2.338h-68.65v123.872h-39.229V141.126
		c0-2.716,0.502-5.255,1.509-7.619c1.004-2.362,2.414-4.425,4.225-6.187c1.811-1.758,3.923-3.142,6.337-4.149
		c2.414-1.004,4.979-1.509,7.695-1.509h88.415c4.927,0,10.132,0.554,15.616,1.66c5.481,1.108,10.913,2.893,16.295,5.356
		c5.38,2.466,10.509,5.582,15.39,9.354c4.877,3.771,9.203,8.35,12.976,13.729c3.771,5.382,6.763,11.594,8.978,18.634
		c2.211,7.042,3.318,14.988,3.318,23.839V284.763z"/>
	<path fill="#223665" d="M1689.172,229.691c0,6.74-0.855,12.802-2.564,18.182c-1.712,5.382-3.976,10.108-6.79,14.183
		c-2.817,4.073-6.087,7.544-9.808,10.41c-3.722,2.867-7.619,5.206-11.692,7.017c-4.074,1.811-8.199,3.145-12.372,3.998
		c-4.176,0.855-8.124,1.282-11.844,1.282h-70.763c-6.74,0-12.775-0.854-18.105-2.565c-5.333-1.709-10.033-3.998-14.107-6.864
		c-4.073-2.867-7.544-6.16-10.41-9.883c-2.867-3.72-5.206-7.619-7.017-11.693c-1.811-4.073-3.145-8.196-3.998-12.372
		c-0.855-4.172-1.282-8.072-1.282-11.693v-53.109c0-10.057,1.834-18.582,5.507-25.574c3.671-6.99,8.247-12.674,13.73-17.05
		c5.48-4.375,11.44-7.518,17.879-9.43c6.436-1.91,12.372-2.867,17.804-2.867h70.763v39.229h-70.461
		c-5.231,0-9.203,1.334-11.92,3.999c-2.715,2.666-4.073,6.563-4.073,11.693v52.808c0,5.332,1.332,9.354,3.998,12.07
		c2.664,2.715,6.563,4.073,11.693,4.073h70.763c5.33,0,9.302-1.358,11.919-4.073c2.614-2.717,3.923-6.639,3.923-11.77V52.711h39.229
		V229.691z"/>
	<path fill="#223665" d="M1766.422,88.167h-39.229V52.711h39.229V88.167z M1766.422,284.763h-39.229v-163.1h39.229V284.763z"/>
	<path fill="#223665" d="M1981.425,300.454c0,6.737-0.855,12.799-2.565,18.181c-1.711,5.38-3.975,10.109-6.789,14.183
		c-2.817,4.074-6.087,7.544-9.807,10.411c-3.723,2.866-7.62,5.205-11.693,7.016c-4.074,1.811-8.199,3.143-12.372,3.998
		c-4.176,0.854-8.124,1.283-11.845,1.283h-70.762v-39.229h70.762c5.331,0,9.303-1.358,11.92-4.074
		c2.614-2.716,3.923-6.639,3.923-11.769V176.583c0-5.13-1.309-9.027-3.923-11.693c-2.617-2.664-6.589-3.999-11.92-3.999h-70.762
		c-4.828,0-8.652,1.485-11.467,4.451c-2.817,2.968-4.225,6.714-4.225,11.241v53.109c0,5.131,1.357,9.053,4.074,11.77
		c2.715,2.715,6.688,4.073,11.919,4.073h70.46v39.229h-70.762c-3.723,0-7.646-0.427-11.769-1.282
		c-4.126-0.854-8.223-2.188-12.297-3.998c-4.073-1.811-7.973-4.149-11.692-7.017c-3.723-2.866-6.993-6.337-9.808-10.41
		c-2.817-4.074-5.08-8.801-6.79-14.183c-1.711-5.38-2.564-11.441-2.564-18.182v-53.109c0-3.72,0.427-7.643,1.282-11.769
		c0.854-4.123,2.188-8.223,3.999-12.296c1.811-4.074,4.148-7.971,7.016-11.693c2.866-3.72,6.337-6.99,10.41-9.807
		c4.074-2.815,8.774-5.078,14.107-6.79c5.33-1.709,11.365-2.565,18.105-2.565h70.762c3.721,0,7.669,0.429,11.845,1.283
		c4.173,0.855,8.298,2.188,12.372,3.998c4.073,1.811,7.971,4.149,11.693,7.016c3.72,2.867,6.989,6.337,9.807,10.411
		c2.814,4.073,5.078,8.777,6.789,14.107c1.71,5.333,2.565,11.368,2.565,18.105V300.454z"/>
	<path fill="#223665" d="M2057.166,88.167h-39.229V52.711h39.229V88.167z M2057.166,284.763h-39.229v-163.1h39.229V284.763z"/>
	<path fill="#223665" d="M2243.049,160.891h-68.498v123.872h-39.682V160.891h-50.997v-39.229h50.997v-53.26h39.682v53.26h68.498
		V160.891z"/>
	<path fill="#223665" d="M2437.23,230.748c0,5.432-0.957,11.292-2.867,17.577c-1.911,6.288-5.005,12.122-9.278,17.502
		c-4.276,5.383-9.859,9.883-16.748,13.504c-6.891,3.621-15.265,5.432-25.121,5.432h-70.763c-5.432,0-11.292-0.955-17.577-2.866
		c-6.287-1.91-12.122-5.003-17.502-9.279c-5.382-4.274-9.882-9.856-13.503-16.748c-3.621-6.889-5.432-15.262-5.432-25.121
		c0-5.432,0.954-11.316,2.866-17.652c1.909-6.338,5.003-12.195,9.279-17.578c4.273-5.379,9.856-9.883,16.747-13.503
		c6.889-3.621,15.263-5.432,25.121-5.432h70.763V214h-70.763c-5.332,0-9.455,1.637-12.371,4.904
		c-2.919,3.27-4.376,7.317-4.376,12.146c0,5.13,1.684,9.128,5.055,11.995c3.368,2.866,7.367,4.3,11.995,4.3h70.46
		c5.33,0,9.453-1.607,12.372-4.828c2.916-3.218,4.375-7.242,4.375-12.07v-54.769c0-5.13-1.584-9.204-4.752-12.221
		c-3.169-3.018-7.167-4.526-11.995-4.526h-86.151v-37.267h86.151c5.432,0,11.29,0.957,17.577,2.867
		c6.285,1.912,12.12,5.005,17.502,9.279c5.38,4.276,9.883,9.859,13.504,16.747c3.621,6.891,5.432,15.265,5.432,25.122V230.748z"/>
	<path fill="#223665" d="M2542.393,284.763h-17.502c-5.634,0-11.644-0.955-18.029-2.866c-6.389-1.91-12.349-5.055-17.879-9.431
		c-5.533-4.375-10.109-10.057-13.73-17.049c-3.621-6.99-5.432-15.564-5.432-25.726V52.711h39.229v176.98
		c0,4.828,1.509,8.676,4.526,11.543c3.018,2.866,6.79,4.3,11.315,4.3h17.502V284.763z"/>
</g>
<g class="testsvg">
	<path fill="#223665" d="M1173.337,195.059c0,59.139-49.939,107.082-111.545,107.082c-61.606,0-111.546-47.943-111.546-107.082
		c0-59.143,49.94-107.085,111.546-107.085C1123.397,87.973,1173.337,135.916,1173.337,195.059z"/>
	<path fill="#223665" d="M1011.954,190.635c0,27.204-22.055,49.262-49.263,49.262c-27.207,0-49.262-22.058-49.262-49.262
		c0-27.209,22.055-49.267,49.262-49.267C989.898,141.368,1011.954,163.425,1011.954,190.635z"/>
	<path fill="#223665" d="M1211.082,190.635c0,27.204-22.055,49.262-49.262,49.262c-27.209,0-49.266-22.058-49.266-49.262
		c0-27.209,22.057-49.267,49.266-49.267C1189.027,141.368,1211.082,163.425,1211.082,190.635z"/>
	<path fill="#FFFFFF" d="M1077.721,187.526c0,27.206-22.055,49.262-49.262,49.262c-27.208,0-49.266-22.056-49.266-49.262
		c0-27.209,22.058-49.266,49.266-49.266C1055.666,138.26,1077.721,160.317,1077.721,187.526z"/>
	<path fill="#FFFFFF" d="M1146.173,187.526c0,27.206-22.058,49.262-49.265,49.262c-27.207,0-49.262-22.056-49.262-49.262
		c0-27.209,22.055-49.266,49.262-49.266C1124.115,138.26,1146.173,160.317,1146.173,187.526z"/>
	<circle fill="#FFFFFF" cx="1061.793" cy="266.861" r="49.263"/>
	<circle fill="#223665" cx="1028.459" cy="183.39" r="13.483"/>
	<circle fill="#223665" cx="1096.908" cy="183.39" r="13.483"/>
	<ellipse fill="#223665" cx="1044.563" cy="250.78" rx="3.63" ry="7.001"/>
	<path fill="#223665" d="M1072.197,251.839c0,3.863,1.626,6.999,3.631,6.999c2.002,0,3.629-3.136,3.629-6.999
		c0-3.866-1.627-7.002-3.629-7.002C1073.823,244.837,1072.197,247.973,1072.197,251.839z"/>
</g>
</svg>
