<?xml version="1.0" encoding="utf-8"?>
<!-- Generator: Adobe Illustrator 16.0.3, SVG Export Plug-In . SVG Version: 6.00 Build 0)  -->
<!DOCTYPE svg PUBLIC "-//W3C//DTD SVG 1.1//EN" "http://www.w3.org/Graphics/SVG/1.1/DTD/svg11.dtd">
<svg version="1.1" id="b6b21c14-e7c7-4824-8aee-a7e7fb4354e1"
	 xmlns="http://www.w3.org/2000/svg" xmlns:xlink="http://www.w3.org/1999/xlink" x="0px" y="0px" width="860.92px"
	 height="810.99px" viewBox="0 0 860.92 810.99" enable-background="new 0 0 860.92 810.99" xml:space="preserve">
<title>making art</title>
<path opacity="0.1" fill="#6C63FF" enable-background="new    " d="M265.83,29.67c29.21-26,75.07-31.33,116.8-29.26
	c131.09,6.51,249.42,69.8,351.83,141.39c37.06,25.91,73.54,53.84,97.59,89.53c49,72.64,34.44,173.28-33.64,233.13
	c-23.17,20.36-51.25,36-80.08,49.81c-51.26,24.61-106.57,44.36-164.74,50c-41.49,4-83.49,0.75-124.729-4.85
	c-115.29-15.64-228.4-50.2-323.2-109.33c-41.59-25.93-80.78-58.17-97.92-100.12C-9.4,308.02,1.57,254.86,44.03,230.03
	c17.56-10.271,38.56-14.91,59.11-19.26c30.26-6.41,61-12.73,88.31-25.77c28.2-13.46,61.59-39.49,56-69.28
	C241.46,83.75,236.66,55.67,265.83,29.67z"/>
<path fill="#6C63FF" d="M675.05,235.2c0,0-10.58-4.29-44.239,11.14c-33.66,15.43-37.86,13.48-46.57,11.16s-13.57-2.92-22.91-15.81
	c0,0-6.59-35.71-13-41.25s-33.47,3.16-33.47,3.16s-32.49,7.45-38.681-36c0,0,4.391-32.72-1.59-42.76c0,0,12.08,5.2,32-3.2
	s35.87,9.05,35.87,9.05s5,13,4.5,20.76c-0.5,7.76,2.66,10.67,12.16,6.92c0,0,4.67-6.64-1.94-17.62
	c-6.609-10.98-11.33-19.15-9.489-27.67c1.84-8.52,7.149-20.35,24.199-26.26c17.051-5.91,40.2-7,51.311-11.67
	c11.109-4.67,13.85-7.65,13.85-7.65s-6.84,6.85,9.271,35.9c16.109,29.05,5.84,41.65,5.84,41.65s-8.57,20.43-46.41,18.77
	c0,0-36.46,1.33-16.58,16.79c0,0,12.73-2.59,31.76-8.64c19.03-6.05,32.771,18.92,36.181,36.29
	C660.521,225.63,675.05,235.2,675.05,235.2z"/>
<path fill="#444053" d="M626.04,89.5l0.2-0.06c1.46,5.54-14.83,27.82-28.76,45.53l-0.16-0.13C616.96,109.9,627.17,93.79,626.04,89.5
	z"/>
<path fill="#444053" d="M597.6,134.5l0.091,0.22c-11.13,14.14-25.12,31-36.32,43.53c-1.07,1.19-2.13,2.44-3.15,3.72l-0.319-0.26
	c1-1.28,2.09-2.54,3.159-3.73C572.25,165.5,586.46,148.65,597.6,134.5z"/>
<path fill="#444053" d="M558.17,181.39l0.22,0.38c-20.38,25.45-21.729,65-21.779,65.31l-4.301-5
	C532.36,241.76,537.65,207.02,558.17,181.39z"/>
<path fill="none" stroke="#444053" stroke-miterlimit="10" d="M651.46,221.4c0,0-24-12.5-42.76-8s-60.95-15.9-60.95-15.9
	s-17.9-7.27-21.5-15.56c0,0-12.29-13-13-19.71s-12.66-23.62-20.46-24.27"/>
<path fill="none" stroke="#444053" stroke-miterlimit="10" d="M647.93,233.43c0,0-12.1-8.16-10.689-17.66"/>
<path fill="none" stroke="#444053" stroke-miterlimit="10" d="M629.37,243.96c0,0-17.311-6.28-19-30.92"/>
<path fill="none" stroke="#444053" stroke-miterlimit="10" d="M601.46,250.34c0,0-16.54-13.72-11.05-37.7"/>
<path fill="none" stroke="#444053" stroke-miterlimit="10" d="M567.87,243.64c0,0-11-23.1-1.21-38.13"/>
<path fill="none" stroke="#444053" stroke-miterlimit="10" d="M651.69,206.17c0,0-12.511,4-9.83,10.56"/>
<path fill="none" stroke="#444053" stroke-miterlimit="10" d="M636.59,183.5c0,0-16.75,5.31-17.14,29"/>
<path fill="none" stroke="#444053" stroke-miterlimit="10" d="M613.23,177.98c0,0-15.25,18.82-14.131,35.92"/>
<path fill="none" stroke="#444053" stroke-miterlimit="10" d="M586.53,185.36c0,0-15.141,14.48-13.21,22.53"/>
<path fill="none" stroke="#444053" stroke-miterlimit="10" d="M577.4,180.25c0,0-14.2,2.54-16.19-2.12"/>
<path fill="none" stroke="#444053" stroke-miterlimit="10" d="M558.95,163.11c0,0,7.17,9.5,9,7.37"/>
<path fill="none" stroke="#444053" stroke-miterlimit="10" d="M630.07,157.1c0,0-35.801,2.6-43.9-8.2"/>
<path fill="none" stroke="#444053" stroke-miterlimit="10" d="M551.46,115.23c0,0,16.79,36.05,29,40.64"/>
<path fill="none" stroke="#444053" stroke-miterlimit="10" d="M569.04,98.06c0,0,10.31,33.16,23.09,43.51"/>
<path fill="none" stroke="#444053" stroke-width="0.75" stroke-miterlimit="10" d="M645.13,129.73c0,0-27.22,11.68-43.56-0.14"/>
<path fill="none" stroke="#444053" stroke-width="0.75" stroke-miterlimit="10" d="M593.28,90.99c0,0,6.22,24.37,14.6,30.26"/>
<path fill="none" stroke="#444053" stroke-width="0.75" stroke-miterlimit="10" d="M641.02,102.42c0,0-15.3,5.8-21,1.36"/>
<path fill="none" stroke="#444053" stroke-miterlimit="10" d="M545.84,171.07c0,0,0,21.25-5.78,22.76"/>
<path fill="none" stroke="#444053" stroke-miterlimit="10" d="M498.55,198.6c0,0,23,2,33.57-9.89"/>
<path fill="none" stroke="#444053" stroke-miterlimit="10" d="M539.92,145.97c0,0-5.56,21.55-20.9,27.36"/>
<path fill="none" stroke="#444053" stroke-miterlimit="10" d="M484.77,175.9c0,0,16.261,5.65,30.25-8.74"/>
<path fill="none" stroke="#444053" stroke-miterlimit="10" d="M521.83,127.44c0,0-1.53,18.3-11.48,26.87"/>
<path fill="none" stroke="#444053" stroke-miterlimit="10" d="M485.39,148.01c0,0,13.49,0.09,16.65-4.31"/>
<ellipse opacity="0.1" fill="#6C63FF" enable-background="new    " cx="424.48" cy="737.99" rx="376" ry="73"/>
<polygon fill="#504F60" points="447.06,435.03 446.95,438.92 440.19,677.44 428.83,677.44 434.39,438.92 434.5,434.43 "/>
<polygon opacity="0.1" enable-background="new    " points="447.06,435.03 446.95,438.92 440.19,677.44 428.83,677.44 
	434.39,438.92 434.5,434.43 "/>
<polygon fill="#504F60" points="512.82,637.09 504.32,637.07 377.88,636.8 371.14,636.79 374.73,625.73 511.93,625.73 "/>
<polygon opacity="0.1" enable-background="new    " points="447.06,435.03 446.95,438.92 434.39,438.92 434.5,434.43 "/>
<rect x="430.77" y="429.2" fill="#504F60" width="21.07" height="7.93"/>
<polygon opacity="0.1" enable-background="new    " points="379,625.73 377.88,636.8 371.14,636.79 374.73,625.73 "/>
<polygon fill="#504F60" points="397.14,429.05 396.8,432.49 368.75,709.13 355.9,708.52 385.45,432.49 385.78,429.35 "/>
<polygon opacity="0.1" enable-background="new    " points="512.82,637.09 504.32,637.07 503.16,625.73 511.93,625.73 "/>
<polygon fill="#504F60" points="526.27,708.52 513.41,709.13 485.37,432.49 485.02,429.05 496.38,429.35 496.71,432.49 "/>
<rect x="297.61" y="156.3" fill="#FFFFFF" width="283.36" height="271.7"/>
<rect x="297.61" y="156.3" fill="#FFFFFF" width="283.36" height="271.7"/>
<path fill="#504F60" d="M444.81,65.44v65.6h-11.05v-65.6c-0.13-3.051,2.238-5.63,5.29-5.76s5.63,2.238,5.76,5.29
	C444.816,65.126,444.816,65.283,444.81,65.44z"/>
<rect x="433.76" y="125.07" opacity="0.1" enable-background="new    " width="11.061" height="5.97"/>
<path fill="#504F60" d="M449.15,129.55v21.67h-19.69v-21.67c0-1.485,1.204-2.69,2.69-2.69l0,0h14.31
	C447.943,126.865,449.145,128.066,449.15,129.55z"/>
<circle opacity="0.1" enable-background="new    " cx="439.29" cy="140.61" r="4.18"/>
<circle fill="#3F3D56" cx="439.29" cy="139.71" r="4.18"/>
<rect x="429.43" y="148.53" opacity="0.1" enable-background="new    " width="19.73" height="2.689"/>
<rect x="421.35" y="152.12" opacity="0.1" enable-background="new    " width="35.87" height="5.98"/>
<rect x="421.35" y="150.32" fill="#504F60" width="35.87" height="5.98"/>
<path opacity="0.1" enable-background="new    " d="M366.73,421H517.38c3.59,0,6.5,2.91,6.5,6.5v1.42l0,0H360.23l0,0v-1.42
	C360.23,423.91,363.141,421,366.73,421z"/>
<polygon opacity="0.1" enable-background="new    " points="385.78,429.35 397.14,429.05 396.8,432.49 385.45,432.49 "/>
<rect x="430.77" y="429.2" opacity="0.1" enable-background="new    " width="21.07" height="3.29"/>
<polygon opacity="0.1" enable-background="new    " points="496.71,432.49 485.37,432.49 485.02,429.05 496.38,429.35 "/>
<path fill="#504F60" d="M366.73,422.77H517.38c3.59,0,6.5,2.91,6.5,6.5v1.421l0,0H360.23l0,0v-1.421
	C360.23,425.68,363.141,422.77,366.73,422.77z"/>
<path opacity="0.05" fill="#6C63FF" enable-background="new    " d="M388,184.63c8.78-11.09,22.55-13.34,35.09-12.46
	c39.38,2.77,74.93,29.72,105.68,60.2c11.131,11,22.091,22.92,29.32,38.12c14.71,30.93,10.34,73.78-10.109,99.26
	c-7,8.67-15.4,15.32-24.061,21.21c-15.39,10.48-32,18.88-49.49,21.28c-12.46,1.71-25.08,0.319-37.47-2.061
	c-34.61-6.66-68.59-21.37-97.07-46.55c-12.5-11-24.27-24.76-29.42-42.62c-5.15-17.86-1.85-40.5,10.9-51.07
	c5.28-4.38,11.59-6.35,17.76-8.21c9.09-2.72,18.33-5.42,26.53-11c8.47-5.74,18.5-16.82,16.82-29.51
	C380.68,207.65,379.24,195.7,388,184.63z"/>
<path fill="#2F2E41" d="M228.137,424.421l-1,1c0,0,45.39,71,55.44,78.551l3.09-2.5C285.667,501.472,274.067,480.171,228.137,424.421
	z"/>
<path fill="#6C63FF" d="M121.46,660.5c0,0,6.22,8.13-2.87,20.41c-9.09,12.279-16.58,22.64-13.55,30.3c0,0,13.71-22.8,24.87-23.12
	C141.07,687.77,133.71,674.22,121.46,660.5z"/>
<path opacity="0.1" enable-background="new    " d="M121.46,660.5c0.543,0.785,0.971,1.644,1.27,2.55
	c10.89,12.8,16.69,24.74,6.23,25c-9.75,0.271-21.45,17.71-24.25,22.11c0.091,0.339,0.201,0.673,0.33,1c0,0,13.71-22.8,24.87-23.12
	C141.07,687.72,133.71,674.22,121.46,660.5z"/>
<path fill="#FFD037" d="M132.99,670.88c0,2.86-0.32,5.18-0.72,5.18s-0.71-2.319-0.71-5.18s0.4-1.52,0.79-1.52
	S132.99,668.01,132.99,670.88z"/>
<path fill="#FFD037" d="M136.96,674.29c-2.51,1.37-4.71,2.2-4.89,1.85c-0.18-0.35,1.69-1.739,4.2-3.109s1.52-0.37,1.71,0
	S139.46,672.92,136.96,674.29z"/>
<path fill="#6C63FF" d="M88.59,660.5c0,0-6.22,8.13,2.87,20.41c9.09,12.279,16.58,22.64,13.55,30.3c0,0-13.71-22.8-24.87-23.12
	C68.98,687.77,76.31,674.22,88.59,660.5z"/>
<path opacity="0.1" enable-background="new    " d="M88.59,660.5c-0.542,0.785-0.97,1.644-1.27,2.55
	c-10.89,12.8-16.69,24.74-6.23,25c9.75,0.271,21.45,17.71,24.25,22.11c-0.091,0.339-0.201,0.673-0.33,1c0,0-13.71-22.8-24.87-23.12
	C68.98,687.72,76.31,674.22,88.59,660.5z"/>
<path fill="#FFD037" d="M77.03,670.88c0,2.86,0.32,5.18,0.72,5.18s0.71-2.319,0.71-5.18s-0.4-1.52-0.79-1.52
	C77.28,669.36,77.03,668.01,77.03,670.88z"/>
<path fill="#FFD037" d="M73.06,674.29c2.51,1.37,4.7,2.2,4.89,1.85c0.19-0.35-1.69-1.739-4.2-3.109s-1.52-0.37-1.71,0
	S70.55,672.92,73.06,674.29z"/>
<path fill="#A8A8A8" d="M79.01,710.15c0,0,17.38-0.53,22.62-4.271c5.24-3.74,26.75-8.18,28.05-2.2c1.3,5.98,26.12,29.761,6.49,29.92
	c-19.63,0.16-45.6-3.06-50.83-6.239C80.11,724.18,79.01,710.15,79.01,710.15z"/>
<path opacity="0.2" enable-background="new    " d="M136.52,731.5c-19.62,0.16-45.6-3.06-50.83-6.24c-4-2.43-5.57-11.14-6.1-15.149
	h-0.58c0,0,1.1,14,6.33,17.21s31.21,6.399,50.83,6.239c5.67,0,7.63-2.06,7.52-5.05C142.9,730.36,140.74,731.5,136.52,731.5z"/>
<path fill="none" stroke="#535461" stroke-width="2" stroke-miterlimit="10" d="M566,689.69c0,0-11.11-37.73,2.08-65.5
	c5.61-11.613,7.302-24.733,4.82-37.391c-1.225-5.999-2.995-11.873-5.29-17.55"/>
<path fill="#6C63FF" d="M575.82,551.7c0,4.63-8.37,18-8.37,18s-8.38-13.41-8.38-18c0.159-4.626,4.039-8.245,8.664-8.086
	C572.136,543.767,575.668,547.299,575.82,551.7z"/>
<path fill="#6C63FF" d="M589.66,577.32c-2.51,3.88-16.83,10.58-16.83,10.58s0.26-15.801,2.77-19.681
	c2.514-3.882,7.698-4.992,11.58-2.479C591.063,568.253,592.173,573.438,589.66,577.32z"/>
<path fill="#6C63FF" d="M589.05,621.09c-4.12,2.08-19.87,0.641-19.87,0.641s8.21-13.511,12.33-15.601
	c4.143-2.082,9.188-0.412,11.271,3.73c2.082,4.142,0.412,9.188-3.73,11.27l0,0V621.09z"/>
<path fill="#6C63FF" d="M581.14,654.1c-3.72,2.75-19.479,4-19.479,4s5.8-14.699,9.52-17.449c3.717-2.762,8.969-1.987,11.73,1.729
	s1.986,8.969-1.73,11.73L581.14,654.1z"/>
<path fill="#6C63FF" d="M555.25,588.8c3.32,3.22,18.77,6.561,18.77,6.561s-3.789-15.351-7.1-18.57
	c-3.275-3.262-8.575-3.251-11.837,0.025c-3.262,3.275-3.25,8.575,0.025,11.837c0.047,0.046,0.094,0.092,0.142,0.138V588.8z"/>
<path fill="#6C63FF" d="M546.46,627.5c4.13,2.08,19.87,0.64,19.87,0.64s-8.2-13.51-12.33-15.6c-4.192-1.96-9.181-0.149-11.141,4.043
	C540.981,620.602,542.56,625.388,546.46,627.5z"/>
<path fill="#6C63FF" d="M543.13,666.34c3.71,2.75,19.47,4,19.47,4s-5.8-14.71-9.52-17.46c-3.72-2.762-8.974-1.984-11.735,1.735
	c-2.761,3.72-1.984,8.974,1.735,11.734L543.13,666.34z"/>
<path fill="#6C63FF" d="M575.82,551.7c0,4.63-8.37,18-8.37,18s-8.38-13.41-8.38-18c0.159-4.626,4.039-8.245,8.664-8.086
	C572.136,543.767,575.668,547.299,575.82,551.7z"/>
<path fill="#6C63FF" d="M589.66,577.32c-2.51,3.88-16.83,10.58-16.83,10.58s0.26-15.801,2.77-19.681
	c2.514-3.882,7.698-4.992,11.58-2.479C591.063,568.253,592.173,573.438,589.66,577.32z"/>
<path fill="#6C63FF" d="M589.05,621.09c-4.12,2.08-19.87,0.641-19.87,0.641s8.21-13.511,12.33-15.601
	c4.143-2.082,9.188-0.412,11.271,3.73c2.082,4.142,0.412,9.188-3.73,11.27l0,0V621.09z"/>
<path fill="#6C63FF" d="M581.14,654.1c-3.72,2.75-19.479,4-19.479,4s5.8-14.699,9.52-17.449c3.717-2.762,8.969-1.987,11.73,1.729
	s1.986,8.969-1.73,11.73L581.14,654.1z"/>
<path fill="#6C63FF" d="M555.25,588.8c3.32,3.22,18.77,6.561,18.77,6.561s-3.789-15.351-7.1-18.57
	c-3.275-3.262-8.575-3.251-11.837,0.025c-3.262,3.275-3.25,8.575,0.025,11.837c0.047,0.046,0.094,0.092,0.142,0.138V588.8z"/>
<path fill="#6C63FF" d="M546.46,627.5c4.13,2.08,19.87,0.64,19.87,0.64s-8.2-13.51-12.33-15.6c-4.192-1.96-9.181-0.149-11.141,4.043
	C540.981,620.602,542.56,625.388,546.46,627.5z"/>
<path fill="#6C63FF" d="M543.13,666.34c3.71,2.75,19.47,4,19.47,4s-5.8-14.71-9.52-17.46c-3.72-2.762-8.974-1.984-11.735,1.735
	c-2.761,3.72-1.984,8.974,1.735,11.734L543.13,666.34z"/>
<path fill="#A8A8A8" d="M539.73,687.31c0,0,13.539-2.689,17.14-6.27c3.6-3.58,19.85-9.85,21.66-5.37c1.81,4.48,24.35,19.7,9,22.39
	c-15.351,2.69-36.09,3.58-40.601,1.79C542.42,698.06,539.73,687.31,539.73,687.31z"/>
<path opacity="0.2" enable-background="new    " d="M587.55,696.39c-15.34,2.69-36.09,3.591-40.6,1.801
	c-3.43-1.37-5.82-7.921-6.771-11l-0.449,0.09c0,0,2.71,10.75,7.22,12.54s25.26,0.899,40.6-1.79c4.42-0.78,5.69-2.601,5.21-4.9
	C592.38,694.66,590.84,695.82,587.55,696.39z"/>
<g opacity="0.75">
	
		<linearGradient id="SVGID_1_" gradientUnits="userSpaceOnUse" x1="418.5405" y1="480.0898" x2="418.5405" y2="685.0596" gradientTransform="matrix(1 0 0 -1 24.46 871.4902)">
		<stop  offset="0" style="stop-color:#808080;stop-opacity:0.25"/>
		<stop  offset="0.54" style="stop-color:#808080;stop-opacity:0.12"/>
		<stop  offset="1" style="stop-color:#808080;stop-opacity:0.1"/>
	</linearGradient>
	<path fill="url(#SVGID_1_)" d="M510.55,384.39c-0.234-0.491-0.432-1-0.59-1.52c-0.31-1.21,0.07-2.47,0.09-3.72
		c-0.012-0.864-0.108-1.725-0.29-2.57c-0.59-3.23-1.17-6.47-1.76-9.71c-0.27-1.49-0.54-3-0.67-4.49c-0.13-1.49-0.11-3.1-0.14-4.65
		c-0.07-5-1-10-1.15-15.05c-0.11-2.61-0.31-5.22-0.521-7.83c-0.369-4.48-0.76-9-1.55-13.38c-0.62-3.51-2.38-6.79-2.42-10.35
		c0-1.85,0-3.7-0.05-5.55c0.105-1.589-0.147-3.182-0.74-4.66c-0.689-1.22-1.622-2.285-2.739-3.13c-3.147-2.72-6.407-5.304-9.78-7.75
		c1.022,0.189,2.077,0.11,3.06-0.23c1.005-0.388,1.522-1.502,1.17-2.52c-0.349-0.563-0.906-0.965-1.55-1.12
		c-1.208-0.365-2.459-0.566-3.72-0.6c0.116-0.478,0.206-0.962,0.27-1.45c0.66-5.16-1.93-10.22-1.92-15.42
		c0-5.36,2.721-10.27,4.29-15.39c2.469-8.127,2.081-16.854-1.1-24.73c-1.69-4.16-4.16-8.07-5-12.48c-0.65-3.46-0.24-7-0.83-10.51
		c-1.48-8.83-9.35-15.62-18-18c-6.67-1.81-13.46-1.23-20.17,0c-5.771,1.07-11-1.29-16.8-0.53c-2.261,0.29-4.61,1-6.07,2.78
		c-0.733,1.089-1.401,2.221-2,3.39c-2.57,4-7.67,5.37-11.91,7.561c-6.439,3.34-11.569,9.57-12.53,16.75
		c-0.89,6.66,1.73,13.26,2.131,20c0.51,8.56-2.601,16.86-5.23,25c-0.862,2.233-1.306,4.606-1.31,7c0.149,1.633,0.513,3.24,1.08,4.78
		c0.829,2.52,1.77,5,2.84,7.45c-1.994,0.811-4.085,1.359-6.22,1.63c-2.181,0.25-4.511,0.16-6.4,1.27
		c-0.879,0.545-1.635,1.268-2.22,2.12c-1.819,2.542-2.54,5.71-2,8.79c-0.801,0.507-1.282,1.393-1.271,2.34
		c-0.05,0.93,0.16,1.85,0.2,2.78c-0.075,1.754-0.412,3.486-1,5.14c-1.557,5.683-1.944,11.623-1.14,17.46
		c1.279,9.34,1.529,18.61,1.939,28c0.271,6.17-0.24,12.41,0.78,18.51c0.34,2,1,4.2,2.58,5.48c0.405,0.274,0.793,0.575,1.16,0.9
		c0.899,0.94,0.93,2.39,1.229,3.66c0.986,3.615,4.381,6.036,8.12,5.79l0,0l0,0l0,0c-0.67,2-1.33,3.85-2,5.77h102.76
		c-0.06-0.24-0.12-0.48-0.17-0.72c-0.168-1.012-0.192-2.042-0.07-3.06c0.86,1,0.71,2.47,0.94,3.78h19.3
		C511.662,389.025,511.352,386.635,510.55,384.39z"/>
	<path fill="#3F3D56" d="M428.46,188.27c-2.25,0.3-4.58,1-6,2.77c-0.736,1.081-1.404,2.206-2,3.37c-2.55,4-7.62,5.33-11.82,7.51
		c-6.399,3.31-11.489,9.51-12.439,16.64c-0.891,6.62,1.71,13.18,2.109,19.84c0.5,8.5-2.579,16.75-5.189,24.86
		c-0.863,2.233-1.308,4.606-1.311,7c0.15,1.624,0.514,3.221,1.08,4.75c2.4,7.271,5.65,14.35,10.49,20.28
		c4.84,5.93,11.38,10.67,18.83,12.42c3.416,0.702,6.893,1.07,10.38,1.1c5.334,0.2,10.667,0.3,16,0.3
		c2.933,0.084,5.866-0.113,8.76-0.59c6.11-1.19,11.49-4.64,16.711-8c6-3.9,12.6-8.69,13.51-15.8c0.649-5.12-1.91-10.15-1.91-15.32
		c0-5.17,2.7-10.2,4.26-15.28c2.458-8.091,2.069-16.78-1.1-24.62c-1.681-4.14-4.13-8-5-12.41c-0.65-3.43-0.25-7-0.83-10.44
		c-1.471-8.77-9.28-15.51-17.86-17.84c-6.63-1.79-13.37-1.23-20,0C439.46,189.86,434.19,187.5,428.46,188.27z"/>
	<path fill="#FBBEBE" d="M430.28,261.76c1.291,5.566,0.324,11.417-2.69,16.271c-1.593,2.314-3.548,4.357-5.79,6.05
		c-3.403,2.762-7.27,4.898-11.42,6.31c2.588,2.035,5.582,3.491,8.78,4.27c2.464,0.528,4.971,0.833,7.49,0.91
		c12.639,0.669,25.313,0.211,37.87-1.37c4.199-0.53,8.579-1.26,12-3.79c0.3-0.188,0.534-0.463,0.67-0.79
		c0.239-0.83-0.75-1.46-1.57-1.74c-4-1.39-8.41-2.18-11.91-4.64c-5.36-3.771-7.6-10.68-8.08-17.21
		c-0.479-6.53,0.46-13.12-0.18-19.65c-8.667-0.126-17.333,0.127-26,0.76c-1,0.07-5.32-0.17-5.84,0.66
		c-0.521,0.83,1.84,3.24,2.439,4.15C428.059,254.928,429.493,258.255,430.28,261.76z"/>
	<circle opacity="0.1" enable-background="new    " cx="442.27" cy="232.38" r="29.57"/>
	<circle fill="#FBBEBE" cx="442.27" cy="231.33" r="29.57"/>
	<path fill="#3F3D56" d="M483.79,340.2c-2.42,9.9-3.94,20.15-2.92,30.3c0.68,6.72,3,14,3.16,20.88h-73.32c0-3.7,0-7.53,0-11.35
		c0-0.71,0-1.41,0-2.11c0-0.91,0-1.82,0-2.73c0-2.77,0-5.51,0-8.17c0-4.79,0-9.6-0.51-14.37c-0.935-8.498-2.902-16.849-5.86-24.87
		l-0.63-1.76l0,0c0-0.07,0-0.13-0.08-0.19c-0.21-0.6-0.439-1.19-0.66-1.79c-3.569-9.48-7.649-19.32-5.689-29.18
		c1.438-7.126,5.876-13.288,12.18-16.91c1.914-1.15,4.08-1.816,6.31-1.94c3.811-0.06,7.24,2.18,10.421,4.3c1.51,1,3,2,4.59,3
		c3.661,2.372,7.614,4.261,11.76,5.62c5.91,1.79,12.6,1.86,18-1.12c1.058-0.599,2.062-1.288,3-2.06
		c1.824-1.556,3.479-3.299,4.94-5.2c1.439,2.8,4.56,4,7.149,5.75c3.592,2.627,6.318,6.266,7.83,10.45
		c1.491,4.164,2.498,8.486,3,12.88c0.708,4.295,0.996,8.649,0.86,13C486.94,328.63,485.2,334.4,483.79,340.2z"/>
	<path fill="#F86D70" d="M439.72,391.38h-50.17c0.67-1.92,1.32-3.79,2-5.74l0,0l0,0h-0.09c-3.717,0.248-7.091-2.164-8.06-5.76
		c-0.301-1.26-0.33-2.69-1.23-3.63c-0.357-0.324-0.739-0.621-1.14-0.89c-1.62-1.27-2.23-3.42-2.561-5.45
		c-1-6.06-0.52-12.25-0.779-18.39c-0.41-9.36-0.66-18.58-1.931-27.86c-0.797-5.797-0.413-11.696,1.13-17.34
		c0.589-1.643,0.926-3.366,1-5.11c0-0.92-0.25-1.84-0.199-2.76c-0.015-0.94,0.463-1.82,1.26-2.32c-0.53-3.063,0.189-6.212,2-8.74
		c0.587-0.845,1.339-1.563,2.21-2.11c1.88-1.1,4.189-1,6.35-1.26c10.101-1.14,18.101-10,28.21-11c2.28-0.152,4.569-0.098,6.841,0.16
		c3.72,0.31,5.079,5,5.939,8.66c0.12,0.48,0.22,1,0.32,1.44c1.899,9,1.55,18.4,1.55,27.65c0,2.123,0.289,4.235,0.86,6.28
		c1.529,5.58,1.689,11.42,2,17.2c0.652,13.508,2.007,26.973,4.06,40.34c0.439,2.502,0.75,5.026,0.93,7.56
		C440.354,385.342,440.187,388.381,439.72,391.38z"/>
	<path fill="#F86D70" d="M429.04,318.22c1.084,1.231,2.062,2.553,2.92,3.95c0.4,0.66,0.73,1.62,0.14,2.12
		c-0.317,0.216-0.696,0.321-1.08,0.3l-7,0.3c-1.062,0.111-2.136,0.013-3.159-0.29c-1.346-0.651-2.482-1.666-3.28-2.93l-3.12-4.08
		c-0.919-1.011-1.602-2.213-2-3.52c-0.356-1.348,0.213-2.77,1.4-3.5c1.135-0.364,2.366-0.278,3.439,0.24
		c2.12,0.72,4.641,1.2,6.511,2.43C425.77,314.657,427.528,316.332,429.04,318.22z"/>
	<path opacity="0.1" enable-background="new    " d="M429.04,318.22c1.084,1.231,2.062,2.553,2.92,3.95
		c0.4,0.66,0.73,1.62,0.14,2.12c-0.317,0.216-0.696,0.321-1.08,0.3l-7,0.3c-1.062,0.111-2.136,0.013-3.159-0.29
		c-1.346-0.651-2.482-1.666-3.28-2.93l-3.12-4.08c-0.919-1.011-1.602-2.213-2-3.52c-0.356-1.348,0.213-2.77,1.4-3.5
		c1.135-0.364,2.366-0.278,3.439,0.24c2.12,0.72,4.641,1.2,6.511,2.43C425.77,314.657,427.528,316.332,429.04,318.22z"/>
	<path opacity="0.1" enable-background="new    " d="M425.04,318.69c0.859-4.59,2.039-9.114,3.53-13.54
		c0.824-2.124,1.418-4.33,1.77-6.58c0.19-1.77,0-3.56,0.181-5.33c0.14-1.53,0.51-3,0.739-4.54c0.449-3.082,0.262-6.223-0.55-9.23
		c-0.64-2.39,0-5.3-1.56-7.24c-0.62-0.79-1.45-1.39-2.101-2.16c-0.718-0.728-1.016-1.772-0.79-2.77
		c2.18,0.495,4.434,0.566,6.641,0.21c0.661-0.072,1.298-0.294,1.859-0.65c0.563-0.367,0.866-1.023,0.78-1.69
		c-0.206-0.637-0.665-1.161-1.27-1.45c-3.967-2.448-8.821-2.992-13.23-1.479c-0.135-0.352,0.005-0.75,0.33-0.94
		c0.31-0.171,0.649-0.283,1-0.33c2.257-0.51,4.108-2.117,4.93-4.28c0.137-0.293,0.172-0.624,0.101-0.94
		c-0.26-0.73-1.3-0.69-2.05-0.5l-4.08,1c-0.79,0.16-1.556,0.418-2.28,0.77c-0.882,0.534-1.669,1.21-2.33,2
		c-2.14,2.31-4.32,4.69-5.5,7.61c-0.53,1.32-0.84,2.72-1.39,4c-0.492,1.35-1.44,2.485-2.681,3.21
		c-1.317,0.719-2.023,2.204-1.75,3.68c0.324,1.452,0.959,2.816,1.86,4c1.515,2.367,3.231,4.598,5.13,6.67
		c1.374,1.248,2.554,2.693,3.5,4.29c0.58,1.18,0.83,2.5,1.34,3.7c0.284,0.559,0.502,1.15,0.65,1.76c0.064,0.438,0.064,0.882,0,1.32
		c-0.851,6.65-5.78,12.07-7.62,18.51c-0.381,0.924,0.06,1.982,0.983,2.363c0.006,0.002,0.011,0.004,0.017,0.007
		c3.58,2.71,8,4.11,12.24,5.46C424.149,323.341,424.685,321.031,425.04,318.69z"/>
	<path fill="#FBBEBE" d="M424.46,318.39c0.859-4.59,2.039-9.115,3.53-13.54c0.829-2.122,1.423-4.329,1.77-6.58
		c0.19-1.77,0-3.56,0.181-5.33c0.14-1.53,0.51-3,0.739-4.54c0.449-3.082,0.262-6.223-0.55-9.23c-0.64-2.39,0-5.3-1.56-7.24
		c-0.62-0.79-1.45-1.39-2.101-2.16c-0.718-0.728-1.016-1.772-0.79-2.77c2.18,0.494,4.434,0.565,6.641,0.21
		c0.661-0.072,1.298-0.294,1.859-0.65c0.562-0.369,0.867-1.023,0.79-1.69c-0.214-0.636-0.675-1.159-1.279-1.45
		c-3.967-2.449-8.821-2.992-13.23-1.48c-0.135-0.352,0.005-0.75,0.33-0.94c0.31-0.172,0.649-0.284,1-0.33
		c2.253-0.513,4.101-2.119,4.92-4.28c0.136-0.291,0.171-0.618,0.1-0.93c-0.26-0.74-1.3-0.7-2-0.51l-4.069,1
		c-0.793,0.158-1.563,0.417-2.29,0.77c-0.882,0.534-1.669,1.21-2.33,2c-2.14,2.311-4.32,4.69-5.5,7.61c-0.53,1.32-0.84,2.72-1.39,4
		c-0.492,1.35-1.44,2.485-2.681,3.21c-1.313,0.724-2.018,2.205-1.75,3.68c0.324,1.452,0.959,2.817,1.86,4
		c1.518,2.365,3.234,4.596,5.13,6.67c1.374,1.247,2.554,2.693,3.5,4.29c0.58,1.18,0.83,2.5,1.34,3.71
		c0.286,0.555,0.504,1.143,0.65,1.75c0.064,0.438,0.064,0.882,0,1.32c-0.851,6.65-5.78,12.07-7.62,18.51
		c-0.381,0.924,0.06,1.982,0.983,2.363c0.006,0.002,0.011,0.005,0.017,0.007c3.58,2.71,8,4.11,12.24,5.46
		C423.596,323.04,424.117,320.73,424.46,318.39z"/>
	<path fill="#3F3D56" d="M427.15,316.72c0.144,0.064,0.263,0.173,0.34,0.311c0.064,0.17,0.064,0.359,0,0.53
		c-0.981,2.962-2.275,5.812-3.86,8.5c-3.18-1.747-6.283-3.617-9.31-5.61c-0.767-0.414-1.411-1.021-1.87-1.76
		C407.98,310.06,424.18,314.99,427.15,316.72z"/>
	<path opacity="0.1" enable-background="new    " d="M409.31,320.9c-1.05,1.4-2.26,2.66-3.3,4.07
		c-1.717,2.621-3.237,5.365-4.55,8.21c-1.923,3.646-4.24,7.069-6.91,10.21c-2.689,3.16-5.91,6.4-6.21,10.54
		c0.033,0.593-0.095,1.184-0.37,1.71c-0.3,0.44-0.83,0.66-1.22,1c-0.39,0.34-0.63,1-0.229,1.41c-1.54,0.16-2.181,2-2.48,3.53
		l-0.68,3.5c-0.205,0.916-0.315,1.851-0.33,2.79c0.099,1.268,0.406,2.512,0.91,3.68c1.629,4.297,3.749,8.391,6.319,12.2
		c1.23,1.82,2.65,3.65,4.67,4.52c1.928,0.659,3.984,0.851,6,0.56c2.851-0.18,6.16-0.63,7.58-3.11c0.9-1.57,0.761-3.6,1.74-5.12
		c0.57-0.739,1.199-1.431,1.88-2.07c1.057-1.357,1.841-2.906,2.311-4.561c2.603-7.43,4.688-15.031,6.239-22.75
		c0.407-2.609,1.095-5.167,2.051-7.63c1.084-2.195,2.355-4.292,3.8-6.27c2.53-3.83,2.91-7.15,4.66-11.39
		c-3.86-0.9-5.641-3.46-8.931-5.63c-3.1-2.05-7.689-6.41-11-8C410.17,315.03,411.08,318.5,409.31,320.9z"/>
	<path opacity="0.1" enable-background="new    " d="M406.95,318.8c-1,1.4-2.26,2.67-3.29,4.08c-1.721,2.615-3.241,5.356-4.55,8.2
		c-1.921,3.65-4.238,7.078-6.91,10.22c-2.7,3.16-5.91,6.39-6.21,10.54c0.028,0.589-0.1,1.176-0.37,1.7
		c-0.372,0.377-0.784,0.713-1.23,1c-0.39,0.36-0.619,1-0.229,1.4c-1.54,0.17-2.18,2-2.47,3.54l-0.681,3.5
		c-0.213,0.912-0.324,1.844-0.33,2.78c0.095,1.272,0.402,2.52,0.91,3.69c1.628,4.295,3.745,8.389,6.311,12.2
		c1.229,1.82,2.66,3.65,4.68,4.52c1.928,0.659,3.984,0.851,6,0.56c2.84-0.18,6.16-0.64,7.57-3.11c0.899-1.58,0.76-3.6,1.739-5.13
		c0.579-0.729,1.207-1.417,1.881-2.06c1.059-1.357,1.847-2.905,2.319-4.56c2.599-7.431,4.68-15.032,6.23-22.75
		c0.392-2.611,1.063-5.172,2-7.64c1.088-2.19,2.359-4.284,3.8-6.26c2.54-3.83,2.39-6.1,4.14-10.35c-3.859-0.89-5.12-4.5-8.41-6.67
		c-3.1-2.05-7.68-6.41-11-8C407.82,312.94,408.73,316.42,406.95,318.8z"/>
	<path fill="#F86D70" d="M408.26,319.85c-1,1.4-2.26,2.67-3.29,4.07c-1.722,2.618-3.243,5.362-4.55,8.21
		c-1.918,3.648-4.235,7.073-6.91,10.21c-2.699,3.17-5.91,6.4-6.21,10.54c0.029,0.593-0.099,1.183-0.37,1.71
		c-0.374,0.375-0.786,0.71-1.229,1c-0.39,0.36-0.62,1-0.23,1.4c-1.54,0.16-2.18,2-2.47,3.54l-0.68,3.5
		c-0.215,0.911-0.325,1.844-0.33,2.78c0.095,1.271,0.399,2.518,0.9,3.69c1.633,4.292,3.753,8.382,6.319,12.19
		c1.23,1.83,2.66,3.66,4.681,4.53c1.928,0.654,3.983,0.846,6,0.56c2.84-0.18,6.159-0.64,7.569-3.11c0.9-1.58,0.76-3.61,1.74-5.13
		c0.578-0.732,1.207-1.424,1.88-2.07c1.058-1.354,1.845-2.898,2.32-4.55c2.6-7.434,4.681-15.039,6.229-22.76
		c0.393-2.607,1.063-5.166,2-7.63c1.089-2.19,2.36-4.284,3.8-6.26c2.537-3.836,4.696-7.909,6.45-12.16
		c-3.834-0.972-7.465-2.622-10.72-4.87c-3.1-2-7.68-6.41-11-8C409.13,313.98,410.03,317.5,408.26,319.85z"/>
	<circle fill="#3F3D56" cx="418.19" cy="322.93" r="2.09"/>
	<circle fill="#3F3D56" cx="411.65" cy="333.14" r="2.09"/>
	<circle fill="#3F3D56" cx="404.85" cy="343.61" r="2.09"/>
	<path fill="#F86D70" d="M511.37,391.38h-19.14c-0.23-1.3-0.08-2.77-0.931-3.77c-0.116,1.015-0.093,2.042,0.07,3.05
		c0.05,0.24,0.11,0.48,0.17,0.72H467.2c-0.072-3.067,0.22-6.132,0.87-9.13c0.813-4.383,1.277-8.824,1.39-13.28
		c0.12-5.51-0.29-11-0.32-16.51c-0.021-5.451,0.331-10.897,1.051-16.3c0.659-5,1.64-10,0.829-15c-0.909-5.53-1.689-11.13-2.39-16.69
		c-0.112-1.23-0.347-2.446-0.7-3.63c-0.288-0.828-0.622-1.639-1-2.43c-1.822-4.019-2.919-8.329-3.239-12.73
		c-0.141-1.66-2.49-3.16-2.46-4.84c3.199-0.65,8.909-1.45,12-0.34c3.09,1.11,5.369,3.84,8.47,4.87c3.1,1.03,6.38,0.28,9.39,1.29
		c0.642,0.148,1.198,0.543,1.55,1.1c0.347,1.015-0.17,2.123-1.17,2.51c-0.963,0.337-1.997,0.416-3,0.23c3.334,2.434,6.567,5,9.7,7.7
		c1.109,0.84,2.034,1.899,2.72,3.11c0.588,1.469,0.841,3.051,0.74,4.63c0,1.84,0,3.67,0.05,5.51c0,3.54,1.78,6.8,2.4,10.28
		c0.78,4.4,1.17,8.85,1.53,13.3c0.21,2.59,0.409,5.18,0.52,7.78c0.2,5,1.07,10,1.15,14.95c0,1.54,0,3.09,0.14,4.62
		c0.146,1.5,0.365,2.992,0.66,4.47c0.58,3.21,1.16,6.43,1.75,9.64c0.177,0.838,0.271,1.692,0.28,2.55
		c-0.189,1.224-0.22,2.468-0.091,3.7c0.159,0.518,0.356,1.022,0.591,1.51C511.375,386.544,511.635,388.977,511.37,391.38z"/>
	<ellipse fill="#3F3D56" cx="443.45" cy="208.17" rx="28.27" ry="10.99"/>
	<path fill="#F86D70" d="M458.65,219.27c-8.881-3.49-12.36,4.12-12.36,4.12c-3.42,9.12,3,14.46,6.86,16.75
		c1.468,0.871,3.143,1.33,4.85,1.33c1.238,0.006,2.466-0.235,3.61-0.71c5.142-1.992,8.843-6.558,9.729-12
		C472.92,216.42,458.65,219.27,458.65,219.27z M467.91,228.97c-0.709,4.486-3.708,8.277-7.91,10c-2.24,0.941-4.797,0.748-6.87-0.52
		c-3.149-1.9-8.359-6.36-5.58-13.95c0,0,2.83-6.34,10-3.43C457.6,221.05,469.2,218.67,467.91,228.97z"/>
	<path fill="#3F3D56" d="M457.6,221.05c0,0,11.601-2.38,10.311,7.92c-0.709,4.486-3.708,8.277-7.91,10
		c-0.928,0.39-1.924,0.591-2.93,0.59l0,0c-1.391,0.001-2.755-0.383-3.94-1.11c-3.149-1.9-8.359-6.36-5.58-13.95
		C447.55,224.5,450.38,218.14,457.6,221.05z"/>
	
		<radialGradient id="SVGID_2_" cx="432.9258" cy="641.5674" r="10.1424" gradientTransform="matrix(1 0 0 -1 24.46 871.4902)" gradientUnits="userSpaceOnUse">
		<stop  offset="0" style="stop-color:#FFFFFF"/>
		<stop  offset="1" style="stop-color:#000000"/>
	</radialGradient>
	<path opacity="0.1" fill="url(#SVGID_2_)" enable-background="new    " d="M457.6,221.05c0,0,11.601-2.38,10.311,7.92
		c-0.709,4.486-3.708,8.277-7.91,10c-0.928,0.39-1.924,0.591-2.93,0.59l0,0c-1.391,0.001-2.755-0.383-3.94-1.11
		c-3.149-1.9-8.359-6.36-5.58-13.95C447.55,224.5,450.38,218.14,457.6,221.05z"/>
	<path fill="#F86D70" d="M412.58,228.78c0.887,5.442,4.589,10.008,9.729,12c1.145,0.475,2.372,0.716,3.61,0.71
		c1.707,0,3.382-0.46,4.85-1.33c3.881-2.29,10.28-7.63,6.86-16.75c0,0-3.479-7.61-12.36-4.12
		C425.27,219.27,411,216.42,412.58,228.78z M426.32,221.05c7.22-2.91,10,3.43,10,3.43c2.779,7.59-2.431,12-5.58,13.95
		c-2.073,1.267-4.63,1.46-6.87,0.52c-4.202-1.723-7.201-5.514-7.91-10C414.72,218.67,426.32,221.05,426.32,221.05z"/>
	<path fill="#3F3D56" d="M426.32,221.05c0,0-11.601-2.38-10.311,7.92c0.709,4.486,3.708,8.277,7.91,10
		c0.928,0.39,1.924,0.591,2.93,0.59l0,0c1.391,0.001,2.755-0.383,3.94-1.11c3.15-1.9,8.36-6.36,5.58-13.95
		C436.37,224.5,433.54,218.14,426.32,221.05z"/>
	
		<radialGradient id="SVGID_3_" cx="1988.8467" cy="641.5674" r="10.1424" gradientTransform="matrix(-1 0 0 -1 2415.3809 871.4902)" gradientUnits="userSpaceOnUse">
		<stop  offset="0" style="stop-color:#FFFFFF"/>
		<stop  offset="1" style="stop-color:#000000"/>
	</radialGradient>
	<path opacity="0.1" fill="url(#SVGID_3_)" enable-background="new    " d="M426.32,221.05c0,0-11.601-2.38-10.311,7.92
		c0.709,4.486,3.708,8.277,7.91,10c0.928,0.39,1.924,0.591,2.93,0.59l0,0c1.391,0.001,2.755-0.383,3.94-1.11
		c3.15-1.9,8.36-6.36,5.58-13.95C436.37,224.5,433.54,218.14,426.32,221.05z"/>
</g>
<circle fill="#FFB8B8" cx="201.233" cy="274.307" r="24.266"/>
<path fill="#FFB8B8" d="M188.462,285.802c0,0,6.386,33.207,3.832,39.592c-2.555,6.386,35.76-2.554,35.76-2.554
	s-7.662-33.207-6.386-40.869C222.945,274.308,188.462,285.802,188.462,285.802z"/>
<polygon fill="#FFB8B8" points="146.315,400.747 148.87,435.23 161.547,489.386 165.473,504.197 171.858,481.208 165.473,428.844 
	163.304,405.269 "/>
<path fill="#FFB8B8" d="M280.418,395.638v35.76c0,0-3.831,45.979-11.494,57.474c-7.663,11.494-10.218-45.979-10.218-45.979
	l6.005-42.146L280.418,395.638z"/>
<path fill="#2F2E41" d="M166.75,506.752c0,0-6.386,7.663-1.277,85.57c5.109,77.907-2.554,134.103,14.049,134.103
	c0,0-5.108,16.603,8.94,17.88s20.435,2.555,21.712-1.276c1.277-3.832,3.832-21.712,0-21.712c0,0,0,5.108,2.555-15.326
	c2.554-20.435,2.554-117.5,8.94-130.271l20.435,47.256c0,0,0,21.711,3.831,31.929s10.218,68.967,10.218,68.967l-1.277,8.94
	c0,0,30.651,5.108,31.929,0s1.277-12.771,0-15.326s-1.277-2.555,1.277-7.663s2.555-8.94,1.277-12.771s-1.277-86.848-1.277-86.848
	s-2.555-100.896-17.88-106.004C254.875,499.089,166.75,506.752,166.75,506.752z"/>
<path fill="#2F2E41" d="M183.354,734.088l-10.218,17.88c0,0-15.964-5.747-12.771,8.94c27.459,1.916,46.617-0.639,46.617-0.639
	s6.386,2.555,7.662-1.277c1.277-3.831-3.192-17.241-7.023-17.241C203.788,741.751,183.354,734.088,183.354,734.088z"/>
<path fill="#2F2E41" d="M257.429,728.979c0,0-10.217,22.989-6.386,24.267c3.832,1.277,38.315,6.386,40.869,7.663
	c2.555,1.277,15.326,2.555,16.604-5.108s-6.386-10.218-6.386-10.218s-14.049-2.554-17.881-15.326
	C280.418,717.484,257.429,728.979,257.429,728.979z"/>
<path fill="#8985A8" d="M230.608,319.008c0,0-34.483-6.386-42.146,0s-39.592,19.158-39.592,25.543s16.603,68.967,16.603,68.967
	s-8.939,94.511,0,97.064c8.94,2.555,24.267-5.108,42.147,3.832c17.88,8.94,68.967-7.663,68.967-7.663s-19.158-81.738-14.049-97.065
	c5.108-15.325,8.939-67.689,8.939-67.689S249.767,319.008,230.608,319.008z"/>
<path fill="#8985A8" d="M157.81,340.72l-8.939,2.554c0,0-19.158,60.027-11.495,62.581c7.663,2.555,29.375,7.663,31.93,7.663
	C171.858,413.519,157.81,340.72,157.81,340.72z"/>
<path fill="#8985A8" d="M251.043,334.334l20.435,7.663c0,0,26.821,49.81,20.436,56.195c-6.387,6.386-34.484,12.771-34.484,12.771
	L251.043,334.334z"/>
<path fill="#2F2E41" d="M200.497,244.335c-2.019-0.365-4.093-0.274-6.07,0.268c-1.583,0.701-3.041,1.657-4.314,2.83
	c-2.311,1.841-4.778,3.477-7.376,4.887c-2.069,1.124-4.294,2.164-5.738,4.023c-0.684,0.939-1.229,1.972-1.62,3.066
	c-2.489,6.356-3.158,13.281-1.932,19.996c0.138,0.954,0.425,1.881,0.851,2.746c1.327,2.446,4.26,3.41,6.729,4.691
	c4.688,2.434,8.243,6.533,12.089,10.155c1.429,1.426,3.034,2.663,4.776,3.681c5.487,2.992,12.193,2.016,18.353,0.958
	c1.826-0.003,3.305-1.487,3.301-3.313c0-0.009,0-0.017,0-0.025l4.861-21.866c0.881-3.24,1.301-6.587,1.246-9.944
	c-0.339-5.308-3.213-12.661-7.108-16.431C214.005,245.663,206.43,244.963,200.497,244.335z"/>
</svg>
