<?xml version="1.0" encoding="utf-8"?>
<!-- Generator: Adobe Illustrator 16.0.3, SVG Export Plug-In . SVG Version: 6.00 Build 0)  -->
<!DOCTYPE svg PUBLIC "-//W3C//DTD SVG 1.1//EN" "http://www.w3.org/Graphics/SVG/1.1/DTD/svg11.dtd">
<svg version="1.1" id="Layer_1" xmlns="http://www.w3.org/2000/svg" xmlns:xlink="http://www.w3.org/1999/xlink" x="0px" y="0px"
	 width="637.74px" height="637.819px" viewBox="0 0 637.74 637.819" enable-background="new 0 0 637.74 637.819"
	 xml:space="preserve"> 
<g>
	<path fill="none" stroke="#000000" stroke-width="5" stroke-linecap="round" stroke-linejoin="round" stroke-miterlimit="10" d="
		M116.446,229.448"/>
</g>
<g opacity="0.3">
	<polygon fill="none" stroke="#243665" stroke-miterlimit="10" points="368.336,181.285 357.834,163.123 347.365,181.295 
		336.887,199.471 357.859,199.453 378.836,199.443 	"/>
	<polygon fill="none" stroke="#243665" stroke-miterlimit="10" points="333.617,403.287 323.115,385.125 312.646,403.297 
		302.167,421.473 323.141,421.455 344.117,421.445 	"/>
	<polygon fill="none" stroke="#243665" stroke-miterlimit="10" points="453.963,471.461 443.461,453.299 432.992,471.471 
		422.514,489.646 443.486,489.629 464.463,489.619 	"/>
	<polygon fill="none" stroke="#243665" stroke-miterlimit="10" points="523.18,332.031 528.598,311.763 508.346,317.21 
		488.084,322.652 502.926,337.471 517.766,352.297 	"/>
	<polygon fill="none" stroke="#243665" stroke-miterlimit="10" points="178.253,96.74 183.67,76.472 163.418,81.919 143.157,87.361 
		158,102.179 172.839,117.005 	"/>
	<polygon fill="none" stroke="#243665" stroke-miterlimit="10" points="163.89,534.652 169.307,514.383 149.055,519.83 
		128.793,525.273 143.636,540.09 158.476,554.916 	"/>
	<polygon fill="none" stroke="#243665" stroke-miterlimit="10" points="544.432,119.38 562.594,108.879 544.422,98.41 
		526.246,87.932 526.264,108.904 526.273,129.882 	"/>
	<polygon fill="none" stroke="#243665" stroke-miterlimit="10" points="163.425,328.932 181.587,318.429 163.416,307.96 
		145.24,297.482 145.258,318.455 145.268,339.434 	"/>
	<circle fill="none" stroke="#243665" stroke-miterlimit="10" cx="387.87" cy="294.588" r="15.913"/>
	<circle fill="none" stroke="#243665" stroke-miterlimit="10" cx="307.466" cy="117.005" r="15.913"/>
	<circle fill="none" stroke="#243665" stroke-miterlimit="10" cx="317.621" cy="586.656" r="15.914"/>
	<path fill="none" stroke="#243665" stroke-miterlimit="10" d="M376.096,562.873c0-8.789,7.127-15.912,15.914-15.912
		c8.789,0,15.914,7.123,15.914,15.912"/>
	<path fill="none" stroke="#243665" stroke-miterlimit="10" d="M249.084,318.457c0-8.789,7.126-15.913,15.914-15.913
		s15.913,7.124,15.913,15.913"/>
	<path fill="none" stroke="#243665" stroke-miterlimit="10" d="M81.667,189.254c0-8.789,7.094-15.913,15.842-15.913
		s15.841,7.124,15.841,15.913"/>
	<path fill="none" stroke="#243665" stroke-miterlimit="10" d="M482.785,215.313c-8.789,0-15.914-7.094-15.914-15.842
		s7.125-15.841,15.914-15.841"/>
	<path fill="none" stroke="#243665" stroke-miterlimit="10" d="M99.607,586.584c-8.789,0-15.913-7.094-15.913-15.842
		s7.124-15.84,15.913-15.84"/>
	<path fill="none" stroke="#243665" stroke-miterlimit="10" d="M270.367,80.49c-8.789,0-15.913-7.094-15.913-15.842
		s7.124-15.841,15.913-15.841"/>
	<circle fill="none" stroke="#243665" stroke-miterlimit="10" cx="91.65" cy="419.211" r="15.914"/>
	<circle fill="none" stroke="#243665" stroke-miterlimit="10" cx="582.372" cy="437.385" r="15.913"/>
	<rect x="554.268" y="183.644" fill="none" stroke="#243665" stroke-miterlimit="10" width="31.654" height="31.654"/>
	<rect x="196.376" y="199.471" fill="none" stroke="#243665" stroke-miterlimit="10" width="31.653" height="31.654"/>
	<rect x="194.788" y="401.557" fill="none" stroke="#243665" stroke-miterlimit="10" width="31.653" height="31.654"/>
	<rect x="554.268" y="554.916" fill="none" stroke="#243665" stroke-miterlimit="10" width="31.652" height="31.654"/>
	<rect x="422.959" y="48.822" fill="none" stroke="#243665" stroke-miterlimit="10" width="31.652" height="31.654"/>
	<g>
		<path fill="none" stroke="#243665" stroke-miterlimit="10" d="M377.475,370.678c-6.91,0-5.719-12.254-14.537-12.254"/>
		<path fill="none" stroke="#243665" stroke-miterlimit="10" d="M406.547,370.678c-6.91,0-5.719-12.254-14.535-12.254"/>
		<path fill="none" stroke="#243665" stroke-miterlimit="10" d="M377.475,370.678c6.91,0,5.719-12.254,14.537-12.254"/>
		<path fill="none" stroke="#243665" stroke-miterlimit="10" d="M421.082,358.424"/>
		<path fill="none" stroke="#243665" stroke-miterlimit="10" d="M406.547,370.678c6.908,0,5.719-12.254,14.535-12.254"/>
	</g>
	<g>
		<path fill="none" stroke="#243665" stroke-miterlimit="10" d="M460.293,598.912c-6.91,0-5.719-12.256-14.537-12.256"/>
		<path fill="none" stroke="#243665" stroke-miterlimit="10" d="M489.365,598.912c-6.91,0-5.719-12.254-14.535-12.254"/>
		<path fill="none" stroke="#243665" stroke-miterlimit="10" d="M460.293,598.912c6.91,0,5.719-12.254,14.537-12.254"/>
		<path fill="none" stroke="#243665" stroke-miterlimit="10" d="M503.9,586.658"/>
		<path fill="none" stroke="#243665" stroke-miterlimit="10" d="M489.365,598.912c6.908-0.002,5.719-12.256,14.535-12.254"/>
	</g>
	<g>
		<path fill="none" stroke="#243665" stroke-miterlimit="10" d="M499.936,269.87c-6.91,0-5.719-12.255-14.535-12.255"/>
		<path fill="none" stroke="#243665" stroke-miterlimit="10" d="M529.008,269.87c-6.91,0-5.719-12.254-14.535-12.254"/>
		<path fill="none" stroke="#243665" stroke-miterlimit="10" d="M499.936,269.87c6.91,0,5.721-12.254,14.537-12.254"/>
		<path fill="none" stroke="#243665" stroke-miterlimit="10" d="M543.545,257.616"/>
		<path fill="none" stroke="#243665" stroke-miterlimit="10" d="M529.008,269.87c6.91-0.001,5.719-12.255,14.537-12.254"/>
	</g>
	<g>
		<path fill="none" stroke="#243665" stroke-miterlimit="10" d="M95.654,255.062c-6.91,0-5.719-12.255-14.536-12.255"/>
		<path fill="none" stroke="#243665" stroke-miterlimit="10" d="M124.726,255.062c-6.91,0-5.719-12.254-14.535-12.254"/>
		<path fill="none" stroke="#243665" stroke-miterlimit="10" d="M95.654,255.062c6.91,0,5.72-12.254,14.537-12.254"/>
		<path fill="none" stroke="#243665" stroke-miterlimit="10" d="M139.262,242.808"/>
		<path fill="none" stroke="#243665" stroke-miterlimit="10" d="M124.726,255.062c6.909-0.001,5.719-12.255,14.536-12.254"/>
	</g>
	<g>
		<path fill="none" stroke="#243665" stroke-miterlimit="10" d="M379.881,91.008c0,6.91-12.254,5.719-12.254,14.536"/>
		<path fill="none" stroke="#243665" stroke-miterlimit="10" d="M379.881,61.936c0,6.91-12.254,5.719-12.254,14.535"/>
		<path fill="none" stroke="#243665" stroke-miterlimit="10" d="M379.881,91.008c0-6.91-12.254-5.72-12.254-14.537"/>
		<path fill="none" stroke="#243665" stroke-miterlimit="10" d="M367.627,47.399"/>
		<path fill="none" stroke="#243665" stroke-miterlimit="10" d="M379.881,61.936c0-6.909-12.254-5.719-12.254-14.536"/>
	</g>
	<g>
		<path fill="none" stroke="#243665" stroke-miterlimit="10" d="M290.741,243.079c0,6.91-12.254,5.719-12.254,14.536"/>
		<path fill="none" stroke="#243665" stroke-miterlimit="10" d="M290.741,214.007c0,6.91-12.254,5.719-12.254,14.535"/>
		<path fill="none" stroke="#243665" stroke-miterlimit="10" d="M290.741,243.079c0-6.91-12.254-5.72-12.254-14.537"/>
		<path fill="none" stroke="#243665" stroke-miterlimit="10" d="M278.487,199.471"/>
		<path fill="none" stroke="#243665" stroke-miterlimit="10" d="M290.741,214.007c0-6.909-12.254-5.719-12.254-14.536"/>
	</g>
	<g>
		<path fill="none" stroke="#243665" stroke-miterlimit="10" d="M532.373,486.008c0,6.91-12.254,5.719-12.254,14.537"/>
		<path fill="none" stroke="#243665" stroke-miterlimit="10" d="M532.373,456.936c0,6.91-12.254,5.719-12.254,14.535"/>
		<path fill="none" stroke="#243665" stroke-miterlimit="10" d="M532.373,486.008c0-6.91-12.254-5.719-12.254-14.537"/>
		<path fill="none" stroke="#243665" stroke-miterlimit="10" d="M520.119,442.4"/>
		<path fill="none" stroke="#243665" stroke-miterlimit="10" d="M532.373,456.936c0-6.908-12.254-5.719-12.254-14.535"/>
	</g>
	<g>
		<path fill="none" stroke="#243665" stroke-miterlimit="10" d="M232.568,508.918c0,6.91-12.254,5.719-12.254,14.535"/>
		<path fill="none" stroke="#243665" stroke-miterlimit="10" d="M232.568,479.846c0,6.91-12.254,5.719-12.254,14.535"/>
		<path fill="none" stroke="#243665" stroke-miterlimit="10" d="M232.568,508.918c0-6.91-12.254-5.721-12.254-14.537"/>
		<path fill="none" stroke="#243665" stroke-miterlimit="10" d="M220.314,465.309"/>
		<path fill="none" stroke="#243665" stroke-miterlimit="10" d="M232.568,479.846c0-6.91-12.254-5.719-12.254-14.537"/>
	</g>
	<line fill="none" stroke="#243665" stroke-miterlimit="10" x1="412.309" y1="403.299" x2="448.178" y2="403.299"/>
	<line fill="none" stroke="#243665" stroke-miterlimit="10" x1="59.682" y1="299.649" x2="95.551" y2="299.649"/>
	<line fill="none" stroke="#243665" stroke-miterlimit="10" x1="414.99" y1="132.918" x2="450.859" y2="132.918"/>
	<line fill="none" stroke="#243665" stroke-miterlimit="10" x1="556.379" y1="51.968" x2="592.248" y2="51.968"/>
	<line fill="none" stroke="#243665" stroke-miterlimit="10" x1="202.68" y1="586.584" x2="238.549" y2="586.584"/>
	<line fill="none" stroke="#243665" stroke-miterlimit="10" x1="294.784" y1="517.287" x2="320.146" y2="491.924"/>
	<line fill="none" stroke="#243665" stroke-miterlimit="10" x1="84.827" y1="77.331" x2="110.19" y2="51.968"/>
	<line fill="none" stroke="#243665" stroke-miterlimit="10" x1="574.313" y1="337.344" x2="599.676" y2="311.98"/>
</g>
</svg>
