<?xml version="1.0" encoding="utf-8"?>
<!-- Generator: Adobe Illustrator 16.0.3, SVG Export Plug-In . SVG Version: 6.00 Build 0)  -->
<!DOCTYPE svg PUBLIC "-//W3C//DTD SVG 1.1//EN" "http://www.w3.org/Graphics/SVG/1.1/DTD/svg11.dtd">
<svg version="1.1" id="Capa_1" xmlns="http://www.w3.org/2000/svg" xmlns:xlink="http://www.w3.org/1999/xlink" x="0px" y="0px"
	 width="2636px" height="369px" viewBox="0 0 2636 369" enable-background="new 0 0 2636 369" xml:space="preserve">
<g>
	<path fill="#8ACEB9" d="M292.788,230.748c0,5.432-0.957,11.292-2.867,17.577c-1.912,6.288-5.005,12.122-9.279,17.502
		c-4.277,5.383-9.859,9.883-16.748,13.504c-6.891,3.621-15.265,5.433-25.121,5.433h-70.762c-5.432,0-11.292-0.955-17.578-2.867
		c-6.287-1.91-12.122-5.002-17.502-9.278c-5.382-4.274-9.882-9.856-13.503-16.748c-3.621-6.89-5.432-15.263-5.432-25.121
		c0-5.433,0.955-11.315,2.867-17.651c1.91-6.339,5.002-12.195,9.279-17.578c4.274-5.379,9.856-9.884,16.747-13.503
		c6.889-3.621,15.263-5.432,25.122-5.432h70.762V214h-70.762c-5.333,0-9.456,1.637-12.372,4.904
		c-2.918,3.27-4.375,7.316-4.375,12.146c0,5.13,1.683,9.128,5.055,11.995c3.369,2.866,7.367,4.301,11.995,4.301h70.46
		c5.33,0,9.454-1.607,12.372-4.828c2.916-3.219,4.375-7.242,4.375-12.07v-54.77c0-5.13-1.584-9.204-4.752-12.221
		c-3.169-3.018-7.167-4.526-11.995-4.526h-86.152v-37.267h86.152c5.432,0,11.29,0.957,17.577,2.867
		c6.285,1.912,12.12,5.005,17.502,9.279c5.38,4.276,9.883,9.859,13.504,16.747c3.621,6.891,5.432,15.265,5.432,25.122
		L292.788,230.748L292.788,230.748z"/>
	<path fill="#8ACEB9" d="M471.881,284.764h-39.229V176.583c0-5.13-1.358-9.027-4.074-11.693c-2.716-2.664-6.74-3.999-12.07-3.999
		h-50.997v123.873h-39.229V141.126c0-2.716,0.502-5.255,1.509-7.619c1.004-2.362,2.414-4.425,4.225-6.187
		c1.811-1.758,3.923-3.142,6.337-4.149c2.414-1.004,4.979-1.509,7.695-1.509h70.762c5.433,0,11.265,0.957,17.503,2.867
		c6.234,1.912,12.169,4.979,17.804,9.204v-12.07h53.108c3.721,0,7.644,0.429,11.77,1.283c4.123,0.855,8.223,2.188,12.297,3.998
		c4.073,1.811,7.97,4.149,11.693,7.016c3.72,2.867,6.989,6.337,9.807,10.411c2.814,4.073,5.078,8.777,6.79,14.107
		c1.709,5.333,2.565,11.368,2.565,18.105v108.181h-39.229V176.583c0-5.13-1.282-9.027-3.848-11.693
		c-2.564-2.664-6.515-3.999-11.845-3.999H469.92c1.307,4.828,1.961,10.06,1.961,15.691V284.764z"/>
	<path fill="#8ACEB9" d="M764.586,230.748c0,5.432-0.957,11.292-2.867,17.577c-1.912,6.288-5.005,12.122-9.279,17.502
		c-4.275,5.383-9.858,9.883-16.746,13.504c-6.892,3.621-15.266,5.433-25.122,5.433h-70.761c-5.433,0-11.293-0.955-17.578-2.867
		c-6.287-1.91-12.122-5.002-17.502-9.278c-5.382-4.274-9.883-9.856-13.504-16.748c-3.621-6.89-5.432-15.263-5.432-25.121
		c0-5.433,0.955-11.315,2.867-17.651c1.91-6.339,5.002-12.195,9.279-17.578c4.273-5.379,9.856-9.884,16.748-13.503
		c6.888-3.621,15.262-5.432,25.12-5.432h70.763V214h-70.762c-5.334,0-9.457,1.637-12.373,4.904
		c-2.918,3.27-4.375,7.316-4.375,12.146c0,5.13,1.684,9.128,5.055,11.995c3.369,2.866,7.367,4.301,11.995,4.301h70.46
		c5.33,0,9.454-1.607,12.372-4.828c2.916-3.219,4.375-7.242,4.375-12.07v-54.77c0-5.13-1.584-9.204-4.753-12.221
		c-3.168-3.018-7.167-4.526-11.995-4.526H624.42v-37.267h86.152c5.432,0,11.29,0.957,17.578,2.867
		c6.284,1.912,12.119,5.005,17.502,9.279c5.379,4.276,9.882,9.859,13.503,16.747c3.62,6.891,5.432,15.265,5.432,25.122
		L764.586,230.748L764.586,230.748z"/>
	<path fill="#8ACEB9" d="M952.582,133.733c1.607,3.723,2.037,7.495,1.283,11.316c-0.755,3.824-2.49,7.143-5.206,9.958
		l-90.679,90.527h94.3v39.229H810.755c-4.024,0-7.671-1.133-10.938-3.396c-3.271-2.265-5.709-5.153-7.317-8.677
		c-1.509-3.719-1.886-7.518-1.132-11.392c0.755-3.87,2.589-7.266,5.507-10.184L887.1,160.89h-94.299v-39.229h141.826
		c3.923,0,7.518,1.056,10.788,3.168C948.682,126.943,951.073,129.912,952.582,133.733z"/>
	<path fill="#8ACEB9" d="M1375.344,284.764h-39.229v-90.527c0-5.131-0.881-9.731-2.641-13.806
		c-1.761-4.073-4.148-7.567-7.167-10.486c-3.018-2.916-6.563-5.153-10.637-6.714c-4.074-1.558-8.476-2.338-13.202-2.338h-68.649
		v123.872h-39.229V141.126c0-2.716,0.502-5.255,1.509-7.619c1.005-2.362,2.414-4.425,4.226-6.187
		c1.811-1.758,3.923-3.142,6.337-4.149c2.414-1.004,4.979-1.509,7.694-1.509h88.416c4.927,0,10.132,0.554,15.615,1.66
		c5.481,1.108,10.913,2.893,16.295,5.355c5.381,2.466,10.51,5.582,15.391,9.354c4.877,3.771,9.203,8.35,12.976,13.729
		c3.771,5.382,6.763,11.594,8.979,18.634c2.211,7.042,3.317,14.988,3.317,23.839V284.764z"/>
	<path fill="#223665" d="M1689.172,229.691c0,6.74-0.855,12.802-2.564,18.182c-1.711,5.382-3.976,10.107-6.789,14.184
		c-2.817,4.072-6.088,7.543-9.809,10.409c-3.722,2.867-7.619,5.206-11.691,7.017c-4.074,1.812-8.199,3.146-12.372,3.998
		c-4.177,0.855-8.124,1.283-11.845,1.283h-70.763c-6.739,0-12.774-0.854-18.104-2.565c-5.333-1.71-10.033-3.998-14.107-6.864
		c-4.072-2.867-7.544-6.16-10.41-9.883c-2.867-3.721-5.206-7.619-7.017-11.693c-1.812-4.072-3.146-8.195-3.998-12.372
		c-0.854-4.172-1.282-8.071-1.282-11.692v-53.109c0-10.057,1.834-18.582,5.507-25.574c3.671-6.99,8.247-12.674,13.73-17.05
		c5.479-4.375,11.439-7.518,17.879-9.43c6.437-1.91,12.372-2.867,17.804-2.867h70.764v39.229h-70.461
		c-5.231,0-9.203,1.334-11.92,3.999c-2.716,2.666-4.074,6.563-4.074,11.693v52.809c0,5.332,1.332,9.354,3.998,12.069
		c2.664,2.715,6.563,4.073,11.693,4.073h70.764c5.33,0,9.302-1.358,11.918-4.073c2.614-2.717,3.924-6.639,3.924-11.771V52.711
		h39.229v176.98H1689.172z"/>
	<path fill="#223665" d="M1766.422,88.167h-39.229V52.711h39.229V88.167z M1766.422,284.764h-39.229V121.663h39.229V284.764z"/>
	<path fill="#223665" d="M1981.425,300.454c0,6.737-0.854,12.799-2.564,18.181c-1.712,5.38-3.976,10.109-6.789,14.184
		c-2.817,4.073-6.087,7.544-9.808,10.411c-3.723,2.865-7.619,5.204-11.692,7.016c-4.074,1.811-8.199,3.143-12.372,3.998
		c-4.176,0.854-8.124,1.283-11.845,1.283h-70.763v-39.229h70.763c5.331,0,9.303-1.357,11.92-4.074
		c2.614-2.716,3.923-6.639,3.923-11.769V176.583c0-5.13-1.309-9.027-3.923-11.693c-2.617-2.664-6.589-3.999-11.92-3.999h-70.763
		c-4.828,0-8.651,1.485-11.467,4.451c-2.816,2.968-4.225,6.714-4.225,11.241v53.108c0,5.132,1.357,9.054,4.074,11.771
		c2.715,2.715,6.688,4.073,11.918,4.073h70.461v39.229h-70.762c-3.724,0-7.646-0.427-11.77-1.281
		c-4.126-0.854-8.223-2.188-12.297-3.998c-4.073-1.812-7.973-4.149-11.692-7.018c-3.723-2.865-6.993-6.337-9.808-10.41
		c-2.817-4.074-5.08-8.801-6.79-14.183c-1.712-5.38-2.564-11.44-2.564-18.183v-53.108c0-3.72,0.427-7.643,1.282-11.769
		c0.854-4.123,2.188-8.223,3.999-12.296c1.812-4.074,4.147-7.971,7.017-11.693c2.865-3.72,6.336-6.99,10.409-9.807
		c4.074-2.815,8.774-5.078,14.107-6.79c5.33-1.709,11.364-2.565,18.104-2.565h70.762c3.722,0,7.67,0.429,11.846,1.283
		c4.173,0.855,8.298,2.188,12.372,3.998c4.073,1.811,7.971,4.149,11.692,7.016c3.721,2.867,6.989,6.337,9.808,10.411
		c2.813,4.073,5.077,8.777,6.788,14.107c1.711,5.333,2.565,11.368,2.565,18.105v123.871H1981.425z"/>
	<path fill="#223665" d="M2057.166,88.167h-39.229V52.711h39.229V88.167z M2057.166,284.764h-39.229V121.663h39.229V284.764z"/>
	<path fill="#223665" d="M2243.049,160.891h-68.498v123.873h-39.682V160.891h-50.997v-39.229h50.997v-53.26h39.682v53.26h68.498
		V160.891z"/>
	<path fill="#223665" d="M2437.23,230.748c0,5.432-0.957,11.292-2.867,17.577c-1.911,6.288-5.005,12.122-9.278,17.502
		c-4.276,5.383-9.858,9.883-16.748,13.504c-6.892,3.621-15.265,5.433-25.121,5.433h-70.763c-5.432,0-11.292-0.955-17.577-2.867
		c-6.287-1.91-12.122-5.002-17.502-9.278c-5.382-4.274-9.882-9.856-13.503-16.748c-3.621-6.89-5.432-15.263-5.432-25.121
		c0-5.433,0.954-11.315,2.865-17.651c1.909-6.339,5.004-12.195,9.279-17.578c4.273-5.379,9.856-9.884,16.747-13.503
		c6.89-3.621,15.263-5.432,25.121-5.432h70.763V214h-70.763c-5.332,0-9.455,1.637-12.371,4.904
		c-2.919,3.27-4.376,7.316-4.376,12.146c0,5.13,1.685,9.128,5.055,11.995c3.368,2.866,7.367,4.301,11.996,4.301h70.459
		c5.33,0,9.453-1.607,12.373-4.828c2.916-3.219,4.375-7.242,4.375-12.07v-54.77c0-5.13-1.584-9.204-4.752-12.221
		c-3.17-3.018-7.168-4.526-11.996-4.526h-86.15v-37.267h86.15c5.433,0,11.291,0.957,17.577,2.867
		c6.285,1.912,12.12,5.005,17.502,9.279c5.38,4.276,9.884,9.859,13.504,16.747c3.621,6.891,5.433,15.265,5.433,25.122V230.748z"/>
	<path fill="#223665" d="M2542.393,284.764h-17.502c-5.634,0-11.644-0.955-18.028-2.867c-6.39-1.91-12.35-5.055-17.879-9.431
		c-5.533-4.375-10.109-10.057-13.73-17.049c-3.621-6.99-5.432-15.563-5.432-25.726V52.711h39.229v176.98
		c0,4.828,1.509,8.676,4.525,11.543c3.018,2.865,6.79,4.3,11.314,4.3h17.502V284.764z"/>
</g>
<g>
	<circle fill="#223665" cx="1067.323" cy="266.095" r="42.466"/>
	<path fill="#223665" d="M1163.476,196.284c0,50.979-43.048,92.307-96.154,92.307s-96.155-41.327-96.155-92.307
		c0-50.983,43.049-92.31,96.155-92.31C1120.426,103.973,1163.476,145.301,1163.476,196.284z"/>
	<path fill="#223665" d="M1024.36,192.471c0,23.45-19.012,42.464-42.466,42.464c-23.453,0-42.465-19.014-42.465-42.464
		c0-23.456,19.013-42.47,42.465-42.47C1005.348,150.001,1024.36,169.015,1024.36,192.471z"/>
	<path fill="#223665" d="M1196.014,192.471c0,23.45-19.012,42.464-42.465,42.464c-23.455,0-42.469-19.014-42.469-42.464
		c0-23.456,19.014-42.47,42.469-42.47C1177.002,150.001,1196.014,169.015,1196.014,192.471z"/>
	<path fill="#FFFFFF" d="M1081.053,189.789c0,23.454-19.012,42.467-42.465,42.467c-23.454,0-42.469-19.013-42.469-42.467
		c0-23.454,19.015-42.467,42.469-42.467C1062.041,147.322,1081.053,166.335,1081.053,189.789z"/>
	<path fill="#FFFFFF" d="M1140.061,189.789c0,23.454-19.015,42.467-42.468,42.467s-42.465-19.013-42.465-42.467
		c0-23.454,19.012-42.467,42.465-42.467S1140.061,166.335,1140.061,189.789z"/>
	<circle fill="#FFFFFF" cx="1067.323" cy="258.179" r="42.466"/>
	<circle fill="#223665" cx="1038.588" cy="186.225" r="11.622"/>
	<circle fill="#223665" cx="1097.593" cy="186.225" r="11.622"/>
	<ellipse fill="#223665" cx="1052.469" cy="244.317" rx="3.13" ry="6.035"/>
	<path fill="#223665" d="M1076.291,245.23c0,3.329,1.402,6.033,3.13,6.033c1.726,0,3.128-2.704,3.128-6.033
		c0-3.333-1.402-6.037-3.128-6.037C1077.693,239.193,1076.291,241.897,1076.291,245.23z"/>
</g>
</svg>
